<svg id="Layer_1" data-name="Layer 1" xmlns="http://www.w3.org/2000/svg" viewBox="0 0 4709.08 4709.08"><g id="menu-circles"><path id="Oval" d="M2725,3961.2c682.74,0,1236.2-553.46,1236.2-1236.2S3407.74,1488.8,2725,1488.8,1488.8,2042.26,1488.8,2725,2042.26,3961.2,2725,3961.2Z" transform="translate(-370.46 -370.46)" fill="none" stroke="#fff" stroke-linecap="round" stroke-width="2" stroke-dasharray="0 10" opacity="0.3" style="isolation:isolate"/><path id="Oval-2" data-name="Oval" d="M2725,4503.91c982.47,0,1778.91-796.44,1778.91-1778.91S3707.47,946.09,2725,946.09,946.09,1742.53,946.09,2725,1742.53,4503.91,2725,4503.91Z" transform="translate(-370.46 -370.46)" fill="none" stroke="#fff" stroke-linecap="round" stroke-width="2" stroke-dasharray="0 10" opacity="0.3" style="isolation:isolate"/><path id="Oval-3" data-name="Oval" d="M2725,5078.54c1299.82,0,2353.54-1053.72,2353.54-2353.54S4024.82,371.46,2725,371.46,371.46,1425.18,371.46,2725,1425.18,5078.54,2725,5078.54Z" transform="translate(-370.46 -370.46)" fill="none" stroke="#fff" stroke-linecap="round" stroke-width="2" stroke-dasharray="0 10" opacity="0.3" style="isolation:isolate"/><path id="Oval-4" data-name="Oval" d="M2725,3412c379.42,0,687-307.58,687-687s-307.58-687-687-687-687,307.58-687,687S2345.58,3412,2725,3412Z" transform="translate(-370.46 -370.46)" fill="none" stroke="#fff" stroke-linecap="round" stroke-width="2" stroke-dasharray="2 14" opacity="0.4" style="isolation:isolate"/></g></svg>
