<?xml version="1.0" encoding="UTF-8"?>
<svg width="18px" height="16px" viewBox="0 0 18 16" version="1.1" xmlns="http://www.w3.org/2000/svg" xmlns:xlink="http://www.w3.org/1999/xlink">
    <title>1/icon/full_screen_off</title>
    <g id="1/icon/full_screen_off" stroke="none" stroke-width="1" fill="none" fill-rule="evenodd">
        <path d="M17,1 C17.5522847,1 18,1.44771525 18,2 L18,14 C18,14.5522847 17.5522847,15 17,15 L1,15 C0.44771525,15 0,14.5522847 0,14 L0,2 C0,1.44771525 0.44771525,1 1,1 L17,1 Z M17,2 L1,2 L1,14 L17,14 L17,2 Z" id="Rectangle" fill="#FFFFFF" fill-rule="nonzero" opacity="0.600000024"></path>
        <path d="M5,8 L5,10 L7,10 L7,11 L4,11 L4,8 L5,8 Z M14,5 L14,8 L13,8 L13,6 L11,6 L11,5 L14,5 Z" id="Combined-Shape" fill="#FFFFFF" fill-rule="nonzero"></path>
    </g>
</svg>