<?xml version="1.0" standalone="no"?>
<!DOCTYPE svg PUBLIC "-//W3C//DTD SVG 20010904//EN"
 "http://www.w3.org/TR/2001/REC-SVG-20010904/DTD/svg10.dtd">
<svg version="1.0" xmlns="http://www.w3.org/2000/svg"
 width="1024.000000pt" height="1024.000000pt" viewBox="0 0 1024.000000 1024.000000"
 preserveAspectRatio="xMidYMid meet">
<metadata>
Created by potrace 1.14, written by Peter Selinger 2001-2017
</metadata>
<g transform="translate(0.000000,1024.000000) scale(0.100000,-0.100000)"
fill="#000000" stroke="none">
<path d="M0 5120 l0 -5120 5120 0 5120 0 0 5120 0 5120 -5120 0 -5120 0 0
-5120z m5427 3214 c15 -11 44 -47 64 -80 42 -69 2448 -5598 2465 -5664 15 -58
5 -90 -36 -117 l-33 -23 -566 0 c-662 0 -605 -10 -668 117 -21 43 -374 839
-783 1770 -410 931 -747 1692 -750 1692 -3 0 -340 -761 -750 -1692 -409 -931
-762 -1727 -783 -1770 -63 -127 -6 -117 -668 -117 l-566 0 -34 23 c-38 26 -49
56 -37 110 8 37 2379 5501 2440 5622 16 33 41 75 55 94 45 59 59 61 355 58
253 -2 268 -3 295 -23z m643 -5482 c0 -8 -938 -1953 -945 -1961 -4 -3 -985
1954 -985 1964 0 3 434 5 965 5 531 0 965 -4 965 -8z"/>
</g>
</svg>
